<?xml version="1.0" standalone="no"?><!DOCTYPE svg PUBLIC "-//W3C//DTD SVG 1.1//EN" "http://www.w3.org/Graphics/SVG/1.1/DTD/svg11.dtd"><svg t="1656727953887" class="icon" viewBox="0 0 1024 1024" version="1.1" xmlns="http://www.w3.org/2000/svg" p-id="1541" xmlns:xlink="http://www.w3.org/1999/xlink" width="200" height="200"><defs><style type="text/css">@font-face { font-family: feedback-iconfont; src: url("//at.alicdn.com/t/font_1031158_u69w8yhxdu.woff2?t=1630033759944") format("woff2"), url("//at.alicdn.com/t/font_1031158_u69w8yhxdu.woff?t=1630033759944") format("woff"), url("//at.alicdn.com/t/font_1031158_u69w8yhxdu.ttf?t=1630033759944") format("truetype"); }
</style></defs><path d="M512 0C229.376 0 0 229.376 0 512s229.376 512 512 512 512-229.376 512-512S794.624 0 512 0z m218.624 672.256c15.872 15.872 15.872 41.984 0 57.856-8.192 8.192-18.432 11.776-29.184 11.776s-20.992-4.096-29.184-11.776L512 569.856l-160.256 160.256c-8.192 8.192-18.432 11.776-29.184 11.776s-20.992-4.096-29.184-11.776c-15.872-15.872-15.872-41.984 0-57.856L454.144 512 293.376 351.744c-15.872-15.872-15.872-41.984 0-57.856 15.872-15.872 41.984-15.872 57.856 0L512 454.144l160.256-160.256c15.872-15.872 41.984-15.872 57.856 0 15.872 15.872 15.872 41.984 0 57.856L569.856 512l160.768 160.256z" fill="#CF3736" p-id="1542"></path></svg>