<svg class="icon" style="width: 1em;height: 1em;vertical-align: middle;fill: currentColor;overflow: hidden;" viewBox="0 0 1024 1024" version="1.1" xmlns="http://www.w3.org/2000/svg"><path d="M625.777778 512m-56.888889 0a56.888889 56.888889 0 1 0 113.777778 0 56.888889 56.888889 0 1 0-113.777778 0Z" /><path d="M853.333333 113.777778L512 0a113.777778 113.777778 0 0 0-113.777778 113.777778v796.444444a113.777778 113.777778 0 0 0 113.777778 113.777778l341.333333-113.777778a113.777778 113.777778 0 0 0 113.777778-113.777778V227.555556a113.777778 113.777778 0 0 0-113.777778-113.777778z m0 682.666666l-341.333333 113.777778V113.777778l341.333333 113.777778v568.888888zM56.888889 227.555556v568.888888a113.777778 113.777778 0 0 0 113.777778 113.777778h170.666666v-113.777778H170.666667V227.555556h170.666666V113.777778H170.666667a113.777778 113.777778 0 0 0-113.777778 113.777778z" /></svg>