<svg class="icon" style="width: 1em;height: 1em;vertical-align: middle;fill: currentColor;overflow: hidden;" viewBox="0 0 1024 1024" version="1.1" xmlns="http://www.w3.org/2000/svg"><path d="M684.12 598.93c0-0.08 0.01-0.16 0.01-0.24V337.41l-0.01 383.33 243.65-0.13 0.23-241.14-69.67-37.55-69.67-139.35H684.13l-0.01 296.36z" fill="#E6E9ED" /><path d="M684.14 302.51l-0.01 139.35h174.2l-69.67-139.35z" fill="#4FC2E9" /><path d="M767.48 337.35l52.24 104.51h38.61l-69.67-139.35H684.14v34.84z" fill="#F5F7FA" /><path d="M788.77 232.9h-557.4L91.91 372.24v383.22h69.8l34.78-34.49 487.64-0.24 0.01-418.16 0.04-34.84h104.6c9.62 0 17.41-7.8 17.41-17.41 0-9.62-7.8-17.42-17.42-17.42z" fill="#FC6E51" /><path d="M858.33 703.2c0 48.1-39 87.08-87.1 87.08-48.1 0-87.1-38.99-87.1-87.08 0-48.11 39-87.1 87.1-87.1 48.09 0 87.1 38.99 87.1 87.1zM544.91 703.2c0 48.1-39 87.08-87.1 87.08-48.1 0-87.08-38.99-87.08-87.08 0-48.11 38.99-87.1 87.08-87.1 48.1 0 87.1 38.99 87.1 87.1z" fill="#434A54" /><path d="M370.73 703.2c0 48.1-39 87.08-87.1 87.08s-87.1-38.99-87.1-87.08c0-48.11 39-87.1 87.1-87.1s87.1 38.99 87.1 87.1z" fill="#434A54" /><path d="M283.63 685.77c-9.62 0-17.41 7.79-17.41 17.43 0 9.62 7.79 17.41 17.41 17.41 9.62 0 17.41-7.8 17.41-17.41 0-9.63-7.79-17.43-17.41-17.43zM771.23 685.77c-9.62 0-17.41 7.79-17.41 17.43 0 9.62 7.79 17.41 17.41 17.41 9.62 0 17.41-7.8 17.41-17.41 0-9.63-7.79-17.43-17.41-17.43zM457.81 685.77c-9.62 0-17.41 7.79-17.41 17.43 0 9.62 7.79 17.41 17.41 17.41 9.62 0 17.43-7.8 17.43-17.41 0-9.63-7.81-17.43-17.43-17.43z" fill="#F5F7FA" /><path d="M422.85 372.24H387.9c-9.62 0-17.41-7.8-17.41-17.41 0-9.62 7.79-17.41 17.41-17.41h34.96c9.62 0 17.43 7.79 17.43 17.41-0.01 9.61-7.82 17.41-17.44 17.41z" fill="#E6E9ED" /><path d="M701.44 337.35h34.83v104.51h-34.83z" fill="#3BAFDA" /><path d="M457.81 563.85H353.07c-8.96 0-16.45-6.79-17.34-15.68l-17.41-174.19a17.423 17.423 0 0 1 17.33-19.15h139.6a17.423 17.423 0 0 1 17.33 19.15l-17.41 174.19c-0.92 8.89-8.4 15.68-17.36 15.68z" fill="#E6E9ED" /><path d="M492.65 389.67H318.23c-9.62 0-17.41-7.81-17.41-17.43 0-9.62 7.79-17.41 17.41-17.41h174.42c9.62 0 17.41 7.79 17.41 17.41 0.01 9.62-7.79 17.43-17.41 17.43z" fill="#F5F7FA" /><path d="M544.43 238.7v11.61c0 9.62 7.8 17.41 17.43 17.41 9.62 0 17.41-7.8 17.41-17.41V238.7c0-2.04-0.37-3.99-1.01-5.8h-32.81c-0.64 1.81-1.02 3.76-1.02 5.8zM283.16 267.73c9.62 0 17.43-7.8 17.43-17.41V238.7c0-2.04-0.38-3.99-1.02-5.8h-32.81c-0.65 1.81-1.01 3.76-1.01 5.8v11.61c-0.01 9.62 7.79 17.42 17.41 17.42zM335.41 238.7v11.61c0 9.62 7.8 17.41 17.43 17.41 9.62 0 17.41-7.8 17.41-17.41V238.7c0-2.04-0.37-3.99-1.02-5.8h-32.8c-0.65 1.81-1.02 3.76-1.02 5.8zM405.09 238.7v11.61c0 9.62 7.8 17.41 17.41 17.41 9.62 0 17.41-7.8 17.41-17.41V238.7c0-2.04-0.37-3.99-1.02-5.8h-32.8c-0.64 1.81-1 3.76-1 5.8zM474.76 238.7v11.61c0 9.62 7.8 17.41 17.41 17.41 9.62 0 17.43-7.8 17.43-17.41V238.7c0-2.04-0.38-3.99-1.02-5.8h-32.81c-0.63 1.81-1.01 3.76-1.01 5.8z" fill="#E9573F" /></svg>