<svg class="icon" style="width: 1em;height: 1em;vertical-align: middle;fill: currentColor;overflow: hidden;" viewBox="0 0 1024 1024" version="1.1" xmlns="http://www.w3.org/2000/svg"><path d="M995.690338 56.713846H28.404185a27.175385 27.175385 0 0 0-28.356923 28.750769v853.07077a27.175385 27.175385 0 0 0 28.356923 28.750769h967.286153a27.175385 27.175385 0 0 0 28.356924-28.750769V85.464615a27.175385 27.175385 0 0 0-28.356924-28.750769z m-28.356923 57.107692v568.713847H56.761108V113.821538zM56.761108 910.178462v-170.535385h910.572307v170.535385z m0 0" fill="#008CFF" /><path d="M540.404185 796.356923H142.225723a28.750769 28.750769 0 0 0 0 57.107692h398.178462a28.750769 28.750769 0 0 0 0-57.107692zM881.8688 796.356923h-170.535385a28.356923 28.356923 0 0 0-28.750769 28.356923 30.72 30.72 0 0 0 28.750769 28.750769h170.535385a30.72 30.72 0 0 0 28.356923-28.750769 28.356923 28.356923 0 0 0-28.356923-28.356923z" fill="#FF4848" /><path d="M142.225723 455.286154H256.047262a27.175385 27.175385 0 0 0 25.6-17.329231l88.221538-176.443077 173.292308 347.372308a34.264615 34.264615 0 0 0 25.6 16.935384 27.569231 27.569231 0 0 0 25.6-16.935384l118.153846-233.550769 31.113846 62.621538a32.295385 32.295385 0 0 0 25.6 17.329231h113.821538a28.750769 28.750769 0 0 0 0-57.107692h-98.067692l-48.049231-96.492308a29.144615 29.144615 0 0 0-51.2 0l-118.153846 233.156923L393.893415 187.864615a29.144615 29.144615 0 0 0-51.2 0l-103.581538 210.313847H142.225723a28.750769 28.750769 0 0 0 0 57.107692z" fill="#008CFF" /></svg>