<svg class="icon" style="width: 1em;height: 1em;vertical-align: middle;fill: currentColor;overflow: hidden;" viewBox="0 0 1024 1024" version="1.1" xmlns="http://www.w3.org/2000/svg"><path d="M786.4 871.2H236.8c-46.4 0-84.8-38.4-84.8-84.8V236.8C152 190.4 190.4 152 236.8 152h549.6c46.4 0 84.8 38.4 84.8 84.8v549.6c0 46.4-38.4 84.8-84.8 84.8zM236.8 200c-20 0-36.8 16.8-36.8 36.8v549.6c0 20 16.8 36.8 36.8 36.8h549.6c20 0 36.8-16.8 36.8-36.8V236.8c0-20-16.8-36.8-36.8-36.8H236.8z" fill="#999999" /><path d="M645.6 407.2H378.4c-49.6 0-90.4-40.8-90.4-90.4V183.2h48v133.6c0 23.2 19.2 42.4 42.4 42.4h267.2c23.2 0 42.4-19.2 42.4-42.4V183.2h48v133.6c0 49.6-40.8 90.4-90.4 90.4z" fill="#999999" /><path d="M627.2 316.8c-13.6 0-24-10.4-24-24V180c0-13.6 10.4-24 24-24s24 10.4 24 24v112.8c0 13.6-10.4 24-24 24zM360 505.6l-77.6 204H312l20-56H416l20.8 56h28.8l-77.6-204H360z m-20 124.8l30.4-84.8c1.6-3.2 2.4-8 3.2-14.4h0.8c0.8 6.4 2.4 11.2 3.2 14.4L408 630.4h-68z m181.6-124.8h-26.4v204h107.2v-23.2H521.6V505.6z m138.4 180.8V505.6h-26.4v204h107.2v-23.2H660z" fill="#999999" /></svg>